<svg id="svg" version="1.1" width="400" height="400" viewBox="0 0 400 400" xmlns="http://www.w3.org/2000/svg" xmlns:xlink="http://www.w3.org/1999/xlink" style="display: block;"><g id="svgg"><path id="path0" d="M184.400 33.830 C 184.070 33.906,180.020 34.245,175.400 34.583 C 131.825 37.777,127.793 38.766,118.505 48.544 C 111.551 55.865,110.307 60.931,110.483 81.200 C 110.693 105.253,108.605 108.170,87.259 113.652 C 81.714 115.076,79.147 117.787,78.563 122.838 L 78.304 125.075 80.852 125.315 C 90.337 126.206,104.835 135.116,108.125 142.075 C 110.412 146.915,110.579 148.442,110.590 164.600 C 110.606 187.337,112.950 193.362,124.752 200.996 C 132.815 206.212,135.764 206.766,168.400 209.188 C 174.450 209.637,181.441 210.197,183.937 210.432 C 189.512 210.958,189.315 211.228,186.746 206.577 C 181.007 196.188,176.136 193.475,161.599 192.574 C 147.791 191.719,144.454 190.589,138.920 184.896 C 133.688 179.514,133.089 176.030,133.571 153.800 C 133.909 138.229,130.168 131.747,117.000 125.089 L 111.000 122.055 116.000 119.671 C 129.823 113.080,133.862 106.440,133.564 90.800 C 133.117 67.372,133.591 64.797,139.421 59.005 C 144.748 53.714,148.098 52.502,158.948 51.944 C 176.428 51.044,184.039 46.448,188.733 33.955 C 188.859 33.621,185.708 33.530,184.400 33.830 M212.400 33.781 C 212.400 35.051,217.289 42.551,219.617 44.853 C 224.585 49.767,229.167 51.324,240.000 51.781 C 252.417 52.305,256.451 53.609,261.566 58.753 C 267.624 64.845,268.082 67.261,267.633 90.800 C 267.335 106.406,271.130 112.708,284.904 119.481 L 290.188 122.079 284.194 125.113 C 271.018 131.783,267.361 138.029,267.634 153.400 C 267.989 173.345,267.709 176.632,265.301 180.800 C 260.986 188.268,254.667 191.651,244.000 192.206 C 228.342 193.020,224.291 194.304,218.935 200.149 C 216.770 202.512,212.065 210.198,212.510 210.644 C 212.617 210.751,215.831 210.569,219.652 210.239 C 223.474 209.910,230.290 209.355,234.800 209.006 C 266.362 206.565,268.774 206.085,277.017 200.600 C 288.352 193.058,290.916 186.058,290.717 163.200 C 290.587 148.359,290.767 146.819,293.191 142.017 C 296.928 134.616,311.358 125.808,320.392 125.416 C 322.976 125.303,323.141 124.972,322.398 121.390 C 321.442 116.784,319.000 114.930,311.147 112.848 C 292.515 107.908,290.626 104.854,290.584 79.600 C 290.546 57.344,288.274 51.258,277.237 43.853 C 268.623 38.074,266.258 37.613,231.800 35.014 C 224.540 34.467,217.205 33.898,215.500 33.751 C 213.795 33.603,212.400 33.617,212.400 33.781 M151.200 89.800 L 151.200 96.000 200.600 96.000 L 250.000 96.000 250.000 89.800 L 250.000 83.600 200.600 83.600 L 151.200 83.600 151.200 89.800 M151.200 122.200 L 151.200 128.400 200.600 128.400 L 250.000 128.400 250.000 122.200 L 250.000 116.000 200.600 116.000 L 151.200 116.000 151.200 122.200 M151.200 154.600 L 151.200 160.800 200.600 160.800 L 250.000 160.800 250.000 154.600 L 250.000 148.400 200.600 148.400 L 151.200 148.400 151.200 154.600 " stroke="none" fill="#e40474" fill-rule="evenodd"></path><path id="path1" d="M259.600 241.029 C 251.835 242.365,247.103 244.140,241.899 247.670 C 221.899 261.237,222.453 295.034,242.893 308.284 C 257.142 317.521,277.928 316.272,289.459 305.485 C 292.629 302.520,292.987 303.435,286.159 297.036 L 280.317 291.562 278.223 293.543 C 263.578 307.393,241.371 291.868,246.634 271.458 C 250.265 257.374,267.790 251.489,277.911 260.955 L 279.845 262.765 285.523 257.077 C 292.109 250.479,291.912 251.017,288.700 248.399 C 282.018 242.953,268.424 239.511,259.600 241.029 M42.400 277.800 L 42.400 312.800 51.000 312.800 L 59.600 312.800 59.600 299.652 L 59.600 286.505 67.100 286.281 C 86.651 285.697,95.569 278.824,95.594 264.320 C 95.610 254.660,91.527 248.394,83.009 245.010 C 78.068 243.048,75.609 242.829,58.300 242.814 L 42.400 242.800 42.400 277.800 M105.600 277.800 L 105.600 312.800 130.000 312.800 L 154.400 312.800 154.400 305.400 L 154.400 298.000 138.200 298.000 L 122.000 298.000 122.000 290.800 L 122.000 283.600 136.610 283.600 L 151.219 283.600 151.110 276.900 L 151.000 270.200 136.500 270.095 L 122.000 269.990 122.000 263.595 L 122.000 257.200 137.400 257.200 L 152.800 257.200 152.800 250.000 L 152.800 242.800 129.200 242.800 L 105.600 242.800 105.600 277.800 M165.200 277.770 L 165.200 312.800 173.600 312.800 L 182.000 312.800 182.000 298.782 L 182.000 284.763 184.695 284.882 L 187.390 285.000 194.965 298.900 L 202.540 312.800 212.513 312.800 C 221.796 312.800,222.467 312.752,222.220 312.109 C 222.075 311.729,218.095 305.092,213.378 297.359 C 208.660 289.626,204.800 283.200,204.800 283.078 C 204.800 282.956,206.195 282.185,207.900 281.365 C 222.610 274.290,222.594 252.722,207.874 245.781 C 202.166 243.089,202.017 243.072,182.700 242.898 L 165.200 242.741 165.200 277.770 M288.800 243.058 C 288.800 243.201,294.650 252.275,301.800 263.224 L 314.800 283.132 314.800 297.966 L 314.800 312.800 323.400 312.800 L 332.000 312.800 332.000 297.899 L 332.000 282.999 345.401 262.899 L 358.802 242.800 348.690 242.800 L 338.579 242.800 331.422 255.218 C 327.485 262.048,324.160 267.697,324.032 267.770 C 323.905 267.844,320.560 262.256,316.600 255.353 L 309.400 242.802 299.100 242.801 C 293.435 242.800,288.800 242.916,288.800 243.058 M69.129 256.782 C 75.713 257.419,78.387 259.619,78.387 264.400 C 78.387 270.354,73.805 272.743,62.300 272.789 L 59.600 272.800 59.600 264.600 L 59.600 256.400 62.500 256.411 C 64.095 256.417,67.078 256.584,69.129 256.782 M192.978 256.816 C 199.121 257.520,201.601 259.633,201.599 264.159 C 201.595 269.966,198.287 271.992,188.300 272.301 L 182.000 272.496 182.000 264.448 L 182.000 256.400 185.700 256.403 C 187.735 256.405,191.010 256.591,192.978 256.816 M101.200 332.511 C 99.735 333.243,98.801 335.419,98.801 338.100 L 98.800 340.400 97.400 340.400 C 96.007 340.400,96.000 340.410,96.000 342.200 C 96.000 343.990,96.007 344.000,97.400 344.000 L 98.800 344.000 98.800 349.400 L 98.800 354.800 100.800 354.800 L 102.800 354.800 102.800 349.400 L 102.800 344.000 104.400 344.000 L 106.000 344.000 106.000 342.200 L 106.000 340.400 104.400 340.400 L 102.800 340.400 102.800 338.409 C 102.800 336.211,103.990 334.889,105.528 335.377 C 106.272 335.613,106.800 334.440,106.800 332.550 C 106.800 331.832,102.617 331.803,101.200 332.511 M331.600 336.980 L 331.600 341.561 329.900 340.789 C 321.879 337.148,315.811 348.842,322.954 354.175 C 324.500 355.329,329.508 355.370,330.758 354.238 C 331.501 353.565,331.600 353.554,331.600 354.138 C 331.600 354.666,332.006 354.800,333.600 354.800 L 335.600 354.800 335.600 343.600 L 335.600 332.400 333.600 332.400 L 331.600 332.400 331.600 336.980 M49.153 333.752 C 38.562 337.537,39.642 353.037,50.647 355.202 C 54.568 355.973,60.401 354.067,61.052 351.800 C 61.365 350.711,57.952 349.107,57.055 349.922 C 52.686 353.896,46.320 350.643,46.247 344.400 C 46.182 338.819,51.975 334.963,55.980 337.922 C 57.332 338.922,58.032 338.851,59.580 337.560 C 62.513 335.113,54.023 332.012,49.153 333.752 M288.585 333.837 C 279.806 336.954,279.415 350.688,287.996 354.540 C 292.340 356.490,300.800 354.578,300.800 351.645 C 300.800 350.708,297.620 349.025,297.089 349.681 C 293.155 354.530,285.249 349.888,286.157 343.263 C 286.845 338.238,292.354 335.243,295.980 337.922 C 297.332 338.922,298.032 338.851,299.580 337.560 C 302.646 335.002,293.769 331.996,288.585 333.837 M108.080 334.080 C 107.400 334.760,107.485 336.628,108.229 337.371 C 109.630 338.773,112.400 337.661,112.400 335.697 C 112.400 333.930,109.366 332.794,108.080 334.080 M188.880 334.080 C 188.200 334.760,188.285 336.628,189.029 337.371 C 190.430 338.773,193.200 337.661,193.200 335.697 C 193.200 333.930,190.166 332.794,188.880 334.080 M246.660 333.904 C 246.515 334.137,238.766 351.828,237.725 354.300 C 237.570 354.668,238.147 354.800,239.904 354.800 L 242.293 354.800 243.091 352.700 L 243.889 350.600 248.430 350.600 L 252.972 350.600 253.783 352.700 L 254.594 354.800 256.897 354.800 C 259.732 354.800,259.989 356.098,254.749 343.934 L 250.297 333.600 248.572 333.600 C 247.623 333.600,246.763 333.737,246.660 333.904 M178.400 338.400 L 178.400 340.400 177.000 340.400 C 175.607 340.400,175.600 340.410,175.600 342.200 C 175.600 343.990,175.607 344.000,177.000 344.000 L 178.400 344.000 178.424 346.900 C 178.482 354.017,179.289 355.306,183.565 355.117 L 186.200 355.000 186.324 353.277 L 186.448 351.555 185.072 351.813 C 183.034 352.195,182.400 351.079,182.400 347.111 L 182.400 344.000 184.400 344.000 L 186.400 344.000 186.400 342.200 L 186.400 340.400 184.400 340.400 L 182.400 340.400 182.400 338.400 L 182.400 336.400 180.400 336.400 L 178.400 336.400 178.400 338.400 M249.947 342.920 C 250.636 344.746,251.200 346.366,251.200 346.520 C 251.200 346.674,249.940 346.800,248.400 346.800 C 246.860 346.800,245.600 346.683,245.600 346.540 C 245.600 345.920,248.164 339.600,248.416 339.600 C 248.569 339.600,249.258 341.094,249.947 342.920 M66.179 340.993 C 60.625 343.781,60.619 351.921,66.169 354.441 C 70.024 356.192,74.768 354.961,76.670 351.717 C 80.728 344.792,73.444 337.346,66.179 340.993 M86.800 340.261 C 86.470 340.394,85.795 340.870,85.300 341.321 L 84.400 342.139 84.400 341.270 C 84.400 340.506,84.181 340.400,82.600 340.400 L 80.800 340.400 80.800 347.600 L 80.800 354.800 82.600 354.800 L 84.400 354.800 84.440 350.900 C 84.488 346.190,84.707 345.305,86.075 344.284 C 88.742 342.292,90.000 344.258,90.000 350.419 L 90.000 354.800 92.000 354.800 L 94.000 354.800 93.977 349.700 C 93.952 344.059,93.530 342.267,91.946 341.093 C 90.878 340.302,87.900 339.821,86.800 340.261 M118.089 340.847 C 113.040 343.347,113.060 351.912,118.121 354.362 C 120.271 355.402,122.576 355.432,124.515 354.443 L 126.000 353.686 125.999 354.543 C 125.992 358.073,121.213 359.639,117.907 357.195 C 117.264 356.719,116.692 356.390,116.637 356.465 C 116.582 356.539,116.024 357.289,115.397 358.132 C 114.452 359.402,114.354 359.729,114.828 360.047 C 119.088 362.897,125.799 362.604,128.168 359.464 C 129.688 357.449,129.995 355.473,129.998 347.700 L 130.000 340.400 128.000 340.400 C 126.488 340.400,126.000 340.547,126.000 341.001 C 126.000 341.499,125.746 341.465,124.506 340.801 C 122.577 339.767,120.238 339.784,118.089 340.847 M155.456 340.988 C 154.075 341.925,154.000 341.935,154.000 341.188 C 154.000 340.521,153.724 340.400,152.200 340.400 L 150.400 340.400 150.400 347.600 L 150.400 354.800 152.156 354.800 L 153.912 354.800 154.061 350.426 C 154.243 345.111,154.902 344.000,157.870 344.000 L 159.600 344.000 159.600 342.000 L 159.600 340.000 158.256 340.000 C 157.486 340.000,156.290 340.422,155.456 340.988 M165.137 340.390 C 163.867 340.773,161.600 342.073,161.600 342.417 C 161.600 343.636,163.666 344.517,165.017 343.873 C 166.778 343.033,168.358 343.015,169.511 343.823 C 171.094 344.932,170.576 345.411,167.276 345.892 C 162.263 346.623,160.800 347.797,160.800 351.087 C 160.800 354.491,166.239 356.652,169.233 354.439 C 170.171 353.745,170.400 353.696,170.400 354.188 C 170.400 354.647,170.851 354.800,172.200 354.800 L 174.000 354.800 174.000 349.259 C 174.000 341.130,171.377 338.505,165.137 340.390 M199.779 340.993 C 194.225 343.781,194.219 351.921,199.769 354.441 C 203.624 356.192,208.368 354.961,210.270 351.717 C 214.328 344.792,207.044 337.346,199.779 340.993 M220.400 340.261 C 220.070 340.394,219.395 340.870,218.900 341.321 L 218.000 342.139 218.000 341.270 C 218.000 340.506,217.781 340.400,216.200 340.400 L 214.400 340.400 214.400 347.600 L 214.400 354.800 216.200 354.800 L 218.000 354.800 218.040 350.900 C 218.088 346.190,218.307 345.305,219.675 344.284 C 222.342 342.292,223.600 344.258,223.600 350.419 L 223.600 354.800 225.600 354.800 L 227.600 354.800 227.577 349.700 C 227.552 344.059,227.130 342.267,225.546 341.093 C 224.478 340.302,221.500 339.821,220.400 340.261 M263.436 340.592 C 258.666 342.292,258.857 347.520,263.739 348.840 C 266.814 349.672,267.600 350.078,267.600 350.834 C 267.600 352.486,265.495 352.796,263.496 351.439 L 262.081 350.479 260.830 351.769 C 258.961 353.698,260.978 355.200,265.439 355.200 C 273.175 355.200,274.229 348.212,266.825 346.008 C 263.702 345.077,263.172 344.181,265.302 343.432 C 266.190 343.119,266.621 343.213,267.587 343.927 L 268.778 344.808 270.085 343.641 C 272.742 341.266,267.846 339.021,263.436 340.592 M307.074 340.383 C 302.329 341.908,300.356 348.431,303.469 352.304 C 307.160 356.896,315.184 355.942,317.175 350.674 C 319.528 344.444,313.512 338.314,307.074 340.383 M343.474 340.407 C 337.290 342.263,336.604 351.571,342.436 354.481 C 346.542 356.530,354.419 353.779,351.388 351.355 C 349.947 350.201,349.724 350.191,348.200 351.200 C 346.529 352.307,344.598 352.234,343.382 351.018 C 341.699 349.336,342.032 349.200,347.846 349.200 L 353.292 349.200 353.005 346.900 C 352.325 341.456,348.548 338.884,343.474 340.407 M108.000 347.600 L 108.000 354.800 110.000 354.800 L 112.000 354.800 112.000 347.600 L 112.000 340.400 110.000 340.400 L 108.000 340.400 108.000 347.600 M133.672 346.634 L 133.800 352.868 135.106 354.034 C 136.917 355.650,140.131 355.711,141.969 354.164 C 143.154 353.168,143.200 353.160,143.200 353.964 C 143.200 354.688,143.441 354.800,145.000 354.800 L 146.800 354.800 146.800 347.600 L 146.800 340.400 144.800 340.400 L 142.800 340.400 142.800 344.946 C 142.800 350.250,142.205 351.600,139.867 351.600 C 137.899 351.600,137.477 350.542,137.276 345.100 L 137.101 340.400 135.323 340.400 L 133.544 340.400 133.672 346.634 M188.800 347.600 L 188.800 354.800 190.800 354.800 L 192.800 354.800 192.800 347.600 L 192.800 340.400 190.800 340.400 L 188.800 340.400 188.800 347.600 M347.382 343.448 C 347.738 343.585,348.298 344.215,348.625 344.848 L 349.221 346.000 345.810 346.000 C 342.112 346.000,341.798 345.765,343.382 344.182 C 344.348 343.216,345.991 342.914,347.382 343.448 M72.298 344.481 C 75.024 346.741,73.537 351.600,70.119 351.600 C 65.994 351.600,64.466 346.480,67.930 344.264 C 69.113 343.508,71.253 343.614,72.298 344.481 M124.008 344.204 C 126.927 345.714,126.696 349.918,123.624 351.190 C 119.260 352.998,116.158 346.477,120.310 344.224 C 121.713 343.462,122.565 343.458,124.008 344.204 M205.898 344.481 C 208.624 346.741,207.137 351.600,203.719 351.600 C 199.594 351.600,198.066 346.480,201.530 344.264 C 202.713 343.508,204.853 343.614,205.898 344.481 M311.608 344.204 C 315.078 345.999,313.810 351.600,309.934 351.600 C 305.764 351.600,304.499 346.100,308.200 344.064 C 309.304 343.457,310.238 343.496,311.608 344.204 M329.604 344.266 C 333.064 346.310,331.694 351.600,327.706 351.600 C 323.862 351.600,322.440 346.383,325.736 344.374 C 327.288 343.428,328.144 343.404,329.604 344.266 M170.400 348.940 C 170.400 350.132,169.336 351.625,168.226 351.992 C 165.555 352.873,163.596 350.889,165.689 349.423 C 166.437 348.899,170.400 348.493,170.400 348.940 " stroke="none" fill="#040404" fill-rule="evenodd"></path><path id="path2" d="" stroke="none" fill="#e8043c" fill-rule="evenodd"></path><path id="path3" d="" stroke="none" fill="#e8043c" fill-rule="evenodd"></path><path id="path4" d="" stroke="none" fill="#e8043c" fill-rule="evenodd"></path><path id="path5" d="" stroke="none" fill="#e8043c" fill-rule="evenodd"></path><path id="path6" d="" stroke="none" fill="#e8043c" fill-rule="evenodd"></path><path id="path7" d="" stroke="none" fill="#e8043c" fill-rule="evenodd"></path><path id="path8" d="" stroke="none" fill="#e8043c" fill-rule="evenodd"></path></g></svg>