<?xml version="1.0" encoding="utf-8"?>
<!-- Generator: Adobe Illustrator 16.0.0, SVG Export Plug-In . SVG Version: 6.00 Build 0)  -->
<!DOCTYPE svg PUBLIC "-//W3C//DTD SVG 1.1//EN" "http://www.w3.org/Graphics/SVG/1.1/DTD/svg11.dtd">
<svg version="1.1" id="Layer_1" xmlns="http://www.w3.org/2000/svg" xmlns:xlink="http://www.w3.org/1999/xlink" x="0px" y="0px"
	 width="40px" height="40px" viewBox="0 0 40 40" enable-background="new 0 0 40 40" xml:space="preserve">
<g id="XMLID_91_">
	<g id="XMLID_101_">
		<path id="XMLID_103_" fill="#E11075" d="M37.29,17.47c-0.787-0.171-1.553-0.434-2.277-0.799c-0.168-0.084-0.293-0.154-0.334-0.189
			c-0.648-0.584-0.963-1.58-0.963-3.043c0-0.176,0.004-0.354,0.016-0.541c0.01-0.207,0.021-0.418,0.029-0.645
			c0.012-0.222,0.023-0.431,0.031-0.625c0.008-0.166,0.016-0.337,0.016-0.474c0-0.78-0.107-1.5-0.318-2.136
			c-0.207-0.616-0.563-1.174-1.063-1.659c-0.518-0.5-1.227-0.94-2.113-1.312c-0.496-0.208-3.447-0.436-5.602-0.604
			c-1.125-0.087-2.15-0.167-2.898-0.243l0.455,0.836c0.613,1.119,1.709,1.819,2.938,1.875c2.01,0.088,2.654,0.146,3.045,0.343
			c0.566,0.285,0.992,0.596,1.305,0.952c0.33,0.369,0.549,0.788,0.65,1.242c0.092,0.408,0.139,0.889,0.139,1.432
			c0,0.333-0.016,0.738-0.049,1.239c-0.031,0.485-0.047,0.879-0.047,1.21c0,1.09,0.244,1.941,0.725,2.531
			c0.422,0.515,0.824,0.94,1.525,1.265c0.436,0.202,0.869,0.407,1.295,0.634c-0.426,0.227-0.859,0.431-1.295,0.633
			c-0.701,0.326-1.104,0.751-1.525,1.267c-0.48,0.589-0.725,1.441-0.725,2.53c0,0.328,0.016,0.727,0.047,1.209
			c0.033,0.501,0.049,0.909,0.049,1.24c0,0.542-0.047,1.022-0.139,1.43c-0.102,0.455-0.32,0.875-0.648,1.243
			c-0.314,0.356-0.74,0.667-1.305,0.953c-0.393,0.198-1.037,0.253-3.047,0.343c-1.229,0.056-2.324,0.756-2.938,1.874l-0.455,0.837
			c0.748-0.077,1.773-0.156,2.898-0.243c2.154-0.169,5.105-0.397,5.6-0.604c0.889-0.369,1.598-0.811,2.115-1.311
			c0.5-0.485,0.855-1.041,1.063-1.658c0.211-0.638,0.318-1.356,0.318-2.137c0-0.136-0.008-0.309-0.014-0.467
			c-0.01-0.201-0.021-0.409-0.033-0.638c-0.008-0.22-0.02-0.433-0.029-0.639c-0.012-0.187-0.016-0.363-0.016-0.541
			c0-1.462,0.314-2.457,0.963-3.039c0.049-0.046,0.881-0.727,1.279-0.973c0.6-0.372,1.525-0.729,2.154-0.832
			c0.436-0.074,0.275,0,0.572-0.006C38.685,18.022,38.089,17.644,37.29,17.47z"/>
		<path id="XMLID_102_" fill="#E11075" d="M14.794,29.607c-2.012-0.09-2.654-0.145-3.047-0.343
			c-0.564-0.286-0.992-0.597-1.307-0.953c-0.328-0.368-0.546-0.788-0.648-1.243c-0.092-0.407-0.139-0.888-0.139-1.43
			c0-0.331,0.018-0.739,0.05-1.24c0.031-0.482,0.047-0.881,0.047-1.209c0-1.089-0.245-1.941-0.726-2.53
			c-0.422-0.516-0.824-0.941-1.525-1.267c-0.436-0.202-0.869-0.406-1.295-0.633c0.426-0.227,0.859-0.432,1.295-0.634
			c0.701-0.325,1.105-0.75,1.527-1.265c0.479-0.59,0.724-1.441,0.724-2.531c0-0.331-0.016-0.725-0.047-1.21
			c-0.032-0.5-0.05-0.906-0.05-1.239c0-0.543,0.047-1.024,0.139-1.432c0.103-0.454,0.32-0.874,0.65-1.242
			c0.313-0.356,0.74-0.667,1.305-0.952c0.393-0.197,1.035-0.255,3.047-0.343c1.229-0.055,2.324-0.756,2.936-1.875l0.456-0.836
			c-0.747,0.076-1.774,0.155-2.899,0.243c-2.154,0.167-5.105,0.396-5.602,0.604C8.799,6.42,8.089,6.86,7.573,7.36
			c-0.5,0.485-0.857,1.043-1.063,1.659C6.3,9.654,6.191,10.375,6.191,11.154c0,0.136,0.007,0.308,0.015,0.474
			c0.009,0.194,0.021,0.403,0.032,0.625c0.009,0.227,0.021,0.438,0.03,0.645c0.01,0.187,0.016,0.364,0.016,0.541
			c0,1.463-0.315,2.458-0.965,3.043c-0.04,0.035-0.166,0.105-0.333,0.189c-0.724,0.365-1.49,0.627-2.277,0.799
			c-0.8,0.174-1.394,0.552-1.394,1.762c0.297,0.006,0.135-0.068,0.572,0.006c0.627,0.102,1.555,0.459,2.154,0.832
			c0.398,0.246,1.23,0.927,1.279,0.973c0.647,0.582,0.963,1.577,0.963,3.039c0,0.178-0.006,0.354-0.016,0.541
			c-0.01,0.206-0.021,0.419-0.03,0.639c-0.012,0.229-0.023,0.437-0.034,0.638c-0.006,0.158-0.013,0.331-0.013,0.467
			c0,0.78,0.108,1.499,0.319,2.137c0.205,0.617,0.563,1.173,1.063,1.658c0.516,0.5,1.226,0.941,2.113,1.311
			c0.494,0.207,3.445,0.436,5.6,0.604c1.125,0.087,2.152,0.166,2.899,0.243l-0.456-0.837C17.118,30.363,16.022,29.663,14.794,29.607
			z"/>
	</g>
	<g id="XMLID_92_">
		<g>
			<rect id="XMLID_25_" x="12.474" y="12.868" fill="#E11075" width="15.051" height="1.869"/>
			<rect id="XMLID_24_" x="12.474" y="17.826" fill="#E11075" width="15.051" height="1.869"/>
			<rect id="XMLID_23_" x="12.474" y="22.782" fill="#E11075" width="15.051" height="1.868"/>
		</g>
	</g>
</g>
</svg>
