<svg xmlns="http://www.w3.org/2000/svg" width="20" height="21" viewBox="0 0 20 21" fill="#fff">
  <g transform="translate(83 -7)">
    <path d="M-66,20.141V13a3.006,3.006,0,0,0-3-3h-2V8l-3,3,3,3V12h2a1,1,0,0,1,1,1v7.139A3.992,3.992,0,0,0-71,24a4,4,0,0,0,4,4,4,4,0,0,0,4-4A3.991,3.991,0,0,0-66,20.141ZM-67,26a2,2,0,0,1-2-2,2,2,0,0,1,2-2,2,2,0,0,1,2,2A2,2,0,0,1-67,26Z"/>
    <path d="M-75,11a4,4,0,0,0-4-4,4,4,0,0,0-4,4,3.992,3.992,0,0,0,3,3.859v5.282A3.992,3.992,0,0,0-83,24a4,4,0,0,0,4,4,4,4,0,0,0,4-4,3.991,3.991,0,0,0-3-3.859V14.859A3.992,3.992,0,0,0-75,11Zm-6,0a2,2,0,0,1,2-2,2,2,0,0,1,2,2,2,2,0,0,1-2,2A2,2,0,0,1-81,11Zm4,13a2,2,0,0,1-2,2,2,2,0,0,1-2-2,2,2,0,0,1,2-2A2,2,0,0,1-77,24Z"/>
  </g>
</svg>
