<svg id="svg" version="1.1" width="400" height="128.92209178228387" viewBox="0 0 400 128.92209178228387" xmlns="http://www.w3.org/2000/svg" xmlns:xlink="http://www.w3.org/1999/xlink" style="display: block;"><g id="svgg"><path id="path0" d="M63.333 17.951 C 62.737 17.981,62.100 18.074,61.917 18.158 C 61.733 18.243,59.386 18.436,56.700 18.589 C 51.739 18.870,51.608 18.880,51.167 19.040 C 51.029 19.090,49.429 19.219,47.611 19.328 C 45.793 19.436,44.158 19.553,43.977 19.588 C 43.796 19.623,43.274 19.668,42.815 19.689 C 42.357 19.710,41.944 19.788,41.898 19.864 C 41.852 19.939,41.484 20.000,41.080 20.000 C 40.149 20.000,37.803 20.337,37.583 20.503 C 37.492 20.572,37.154 20.683,36.833 20.750 C 36.512 20.818,35.837 21.089,35.333 21.353 C 34.829 21.617,34.323 21.833,34.208 21.833 C 34.094 21.833,34.000 21.903,34.000 21.989 C 34.000 22.074,33.848 22.193,33.662 22.252 C 33.256 22.380,31.690 23.376,31.319 23.740 C 31.174 23.883,30.987 24.001,30.903 24.002 C 30.474 24.007,27.232 27.678,26.821 28.625 C 26.691 28.923,26.529 29.167,26.459 29.167 C 26.390 29.167,26.333 29.280,26.333 29.419 C 26.333 29.558,26.265 29.801,26.181 29.961 C 25.768 30.743,25.512 31.514,25.337 32.500 C 25.231 33.096,25.056 33.733,24.947 33.917 C 24.803 34.160,24.747 36.427,24.738 42.333 C 24.730 47.600,24.661 50.707,24.541 51.250 C 24.271 52.465,23.646 54.211,23.389 54.468 C 23.267 54.590,23.167 54.787,23.167 54.906 C 23.167 55.102,22.636 55.861,21.859 56.776 C 21.529 57.163,19.969 57.996,18.958 58.323 C 18.615 58.435,18.333 58.581,18.333 58.648 C 18.333 58.715,17.940 58.870,17.458 58.992 C 16.977 59.114,16.546 59.266,16.500 59.330 C 16.402 59.466,14.177 60.109,12.750 60.413 C 10.597 60.872,8.500 62.103,8.500 62.908 C 8.500 63.035,8.416 63.167,8.312 63.201 C 8.087 63.276,7.675 65.139,7.670 66.104 L 7.667 66.790 9.167 66.908 C 9.992 66.972,10.667 67.085,10.667 67.159 C 10.667 67.232,11.098 67.408,11.625 67.550 C 12.826 67.874,13.820 68.239,14.923 68.760 C 15.395 68.984,15.869 69.167,15.974 69.167 C 16.080 69.167,16.167 69.230,16.167 69.308 C 16.167 69.386,16.485 69.590,16.875 69.762 C 17.265 69.933,17.643 70.170,17.717 70.287 C 17.790 70.404,17.956 70.500,18.086 70.500 C 18.215 70.500,18.402 70.650,18.500 70.833 C 18.598 71.017,18.788 71.167,18.921 71.167 C 19.055 71.167,19.258 71.317,19.372 71.500 C 19.487 71.683,19.658 71.833,19.754 71.833 C 20.221 71.833,22.566 74.148,23.033 75.070 C 23.223 75.444,23.429 75.787,23.491 75.833 C 23.622 75.930,24.222 77.809,24.222 78.122 C 24.222 78.238,24.275 78.333,24.340 78.333 C 24.636 78.333,24.745 81.006,24.747 88.319 C 24.749 94.491,24.796 96.237,24.958 96.291 C 25.073 96.330,25.167 96.538,25.167 96.754 C 25.167 97.257,25.633 99.273,25.833 99.638 C 25.918 99.791,26.229 100.442,26.525 101.083 C 26.821 101.725,27.162 102.310,27.282 102.383 C 27.402 102.457,27.500 102.632,27.500 102.772 C 27.500 103.160,30.608 106.146,31.924 107.023 C 34.688 108.864,37.229 109.895,39.667 110.164 C 40.537 110.260,42.000 110.444,42.917 110.573 C 43.833 110.702,46.008 110.894,47.750 111.000 C 49.492 111.105,51.067 111.255,51.250 111.331 C 51.433 111.408,53.458 111.562,55.750 111.673 C 58.042 111.784,59.992 111.919,60.083 111.974 C 60.175 112.029,60.475 112.085,60.750 112.099 C 61.025 112.112,62.436 112.216,63.885 112.329 C 65.334 112.443,66.561 112.495,66.610 112.446 C 66.720 112.335,66.362 111.209,66.193 111.136 C 66.127 111.107,65.787 110.502,65.438 109.792 C 65.090 109.081,64.754 108.500,64.693 108.500 C 64.632 108.500,64.489 108.294,64.376 108.042 C 64.063 107.345,61.332 104.667,60.934 104.667 C 60.887 104.667,60.572 104.479,60.234 104.250 C 59.896 104.021,59.481 103.833,59.310 103.833 C 59.140 103.833,59.000 103.768,59.000 103.689 C 59.000 103.511,57.229 103.000,56.612 103.000 C 56.364 103.000,56.032 102.932,55.873 102.848 C 55.714 102.764,53.642 102.615,51.268 102.516 C 48.895 102.416,46.870 102.273,46.768 102.197 C 46.667 102.121,46.412 102.050,46.202 102.039 C 45.531 102.005,44.051 101.512,43.835 101.252 C 43.720 101.113,43.504 101.000,43.355 101.000 C 43.205 101.000,42.865 100.812,42.599 100.583 C 42.333 100.354,42.028 100.167,41.921 100.167 C 41.814 100.167,41.576 99.998,41.391 99.792 C 41.206 99.585,40.873 99.267,40.651 99.083 C 40.311 98.804,39.401 97.789,38.838 97.063 C 38.449 96.561,37.686 94.657,37.577 93.917 C 37.509 93.458,37.370 93.030,37.269 92.964 C 37.032 92.812,37.061 82.337,37.299 82.185 C 37.504 82.054,37.524 79.701,37.320 79.575 C 37.236 79.523,37.167 79.091,37.166 78.615 C 37.166 77.581,36.739 75.039,36.521 74.772 C 36.436 74.668,36.282 74.268,36.179 73.883 C 36.076 73.497,35.898 73.085,35.783 72.966 C 35.669 72.847,35.331 72.375,35.033 71.917 C 34.391 70.928,32.217 68.667,31.910 68.667 C 31.791 68.667,31.669 68.610,31.639 68.542 C 31.541 68.322,30.267 67.518,29.707 67.323 C 29.410 67.219,29.167 67.066,29.167 66.984 C 29.167 66.901,29.088 66.833,28.992 66.833 C 28.753 66.833,25.686 65.333,25.582 65.165 C 25.493 65.020,27.089 64.167,27.449 64.167 C 27.569 64.167,27.667 64.095,27.667 64.007 C 27.667 63.919,27.968 63.757,28.335 63.646 C 28.703 63.536,29.087 63.346,29.189 63.223 C 29.291 63.100,29.496 62.999,29.645 62.997 C 29.795 62.996,30.292 62.731,30.750 62.409 C 31.208 62.087,31.771 61.703,32.000 61.556 C 32.500 61.234,34.833 58.830,34.833 58.637 C 34.833 58.561,34.965 58.355,35.125 58.179 C 35.546 57.715,35.763 57.434,35.808 57.295 C 35.938 56.896,36.368 55.871,36.514 55.611 C 36.760 55.176,37.166 52.745,37.166 51.708 C 37.167 51.227,37.237 50.833,37.323 50.833 C 37.529 50.833,37.504 48.281,37.297 48.148 C 37.062 47.997,37.032 37.451,37.267 37.151 C 37.368 37.022,37.547 36.448,37.664 35.875 C 37.782 35.302,37.938 34.833,38.010 34.833 C 38.082 34.833,38.232 34.552,38.343 34.208 C 38.453 33.865,38.684 33.449,38.855 33.285 C 39.027 33.121,39.167 32.920,39.167 32.838 C 39.167 32.756,39.598 32.268,40.125 31.754 C 41.591 30.324,41.728 30.207,42.214 29.986 C 42.463 29.873,42.667 29.723,42.667 29.653 C 42.667 29.583,42.929 29.439,43.250 29.333 C 43.571 29.227,43.833 29.082,43.833 29.010 C 43.833 28.888,45.548 28.260,45.917 28.247 C 46.008 28.244,46.163 28.191,46.259 28.131 C 46.481 27.992,51.851 27.667,53.925 27.667 C 54.782 27.667,55.527 27.592,55.583 27.500 C 55.640 27.408,55.910 27.333,56.184 27.333 C 56.883 27.333,58.875 26.814,59.123 26.567 C 59.237 26.453,59.549 26.312,59.818 26.253 C 60.086 26.195,60.347 26.038,60.398 25.906 C 60.448 25.775,60.601 25.667,60.736 25.667 C 60.872 25.667,61.169 25.498,61.396 25.292 C 61.624 25.085,62.150 24.654,62.566 24.333 C 62.982 24.012,63.368 23.619,63.423 23.458 C 63.477 23.298,63.583 23.167,63.656 23.167 C 63.931 23.167,66.667 18.567,66.667 18.105 C 66.667 17.821,66.299 17.804,63.333 17.951 M79.167 18.084 C 79.167 18.350,80.296 20.649,80.517 20.833 C 80.572 20.879,80.714 21.104,80.832 21.333 C 81.054 21.762,82.491 23.629,83.083 24.258 C 83.267 24.453,83.829 24.887,84.333 25.222 C 84.837 25.558,85.325 25.891,85.417 25.964 C 85.508 26.036,85.846 26.201,86.167 26.330 C 86.487 26.459,86.787 26.610,86.833 26.665 C 86.969 26.830,88.183 27.141,89.167 27.264 C 89.671 27.326,90.158 27.433,90.250 27.500 C 90.342 27.567,91.017 27.634,91.750 27.649 C 94.471 27.702,99.407 28.020,99.576 28.153 C 99.672 28.228,100.050 28.343,100.417 28.408 C 101.060 28.522,102.996 29.405,103.167 29.661 C 103.212 29.730,103.480 29.905,103.761 30.049 C 104.292 30.321,105.836 31.783,106.417 32.564 C 106.600 32.811,106.866 33.141,107.009 33.298 C 107.151 33.455,107.404 33.921,107.570 34.333 C 107.737 34.746,107.935 35.233,108.010 35.417 C 108.242 35.982,108.500 37.478,108.500 38.258 C 108.500 38.666,108.575 39.000,108.667 39.000 C 108.899 39.000,108.889 43.877,108.657 44.110 C 108.385 44.382,108.355 52.588,108.625 52.858 C 108.740 52.973,108.833 53.260,108.833 53.497 C 108.833 53.734,108.949 54.337,109.091 54.839 C 109.233 55.340,109.358 55.844,109.369 55.958 C 109.380 56.073,109.439 56.167,109.501 56.167 C 109.563 56.167,109.712 56.467,109.833 56.833 C 109.954 57.200,110.107 57.500,110.173 57.500 C 110.239 57.500,110.384 57.720,110.495 57.989 C 111.075 59.389,114.618 62.376,116.917 63.403 C 118.399 64.065,119.755 64.732,119.833 64.838 C 119.879 64.900,120.029 64.990,120.167 65.039 C 120.365 65.110,120.348 65.155,120.083 65.260 C 119.900 65.333,119.712 65.440,119.667 65.499 C 119.621 65.558,119.246 65.739,118.834 65.902 C 118.422 66.064,118.047 66.246,118.000 66.307 C 117.875 66.472,115.778 67.500,115.567 67.500 C 115.467 67.500,115.229 67.631,115.040 67.792 C 114.331 68.391,114.072 68.591,113.649 68.863 C 112.948 69.315,110.500 71.934,110.500 72.232 C 110.500 72.319,110.375 72.528,110.223 72.697 C 109.800 73.164,109.026 75.216,108.901 76.204 C 108.839 76.688,108.722 77.169,108.640 77.273 C 108.339 77.654,108.389 85.733,108.694 86.111 C 108.861 86.318,108.788 90.841,108.601 91.833 C 108.541 92.154,108.408 92.960,108.305 93.625 C 108.203 94.290,108.051 94.833,107.967 94.833 C 107.882 94.833,107.847 94.890,107.888 94.958 C 107.957 95.075,107.698 95.638,106.942 97.020 C 106.631 97.588,104.272 100.000,104.028 100.000 C 103.955 100.000,103.750 100.136,103.572 100.302 C 102.789 101.031,99.174 102.446,99.164 102.027 C 99.163 101.966,99.106 102.002,99.039 102.107 C 98.958 102.234,97.408 102.364,94.417 102.496 C 91.942 102.605,89.892 102.763,89.861 102.847 C 89.831 102.931,89.583 103.000,89.310 103.000 C 88.601 103.000,87.296 103.341,86.987 103.607 C 86.842 103.731,86.635 103.833,86.526 103.833 C 86.331 103.833,85.661 104.165,85.500 104.341 C 85.454 104.392,85.064 104.636,84.633 104.886 C 83.342 105.631,81.601 107.507,80.778 109.040 C 80.222 110.075,79.939 110.546,79.742 110.763 C 79.500 111.031,79.091 112.314,79.211 112.433 C 79.293 112.516,82.272 112.320,84.583 112.080 C 85.250 112.011,91.787 111.549,93.125 111.476 C 93.515 111.455,93.833 111.377,93.833 111.302 C 93.833 111.228,94.340 111.165,94.958 111.163 C 95.577 111.161,97.433 111.045,99.083 110.905 C 100.733 110.765,102.346 110.631,102.667 110.607 C 102.987 110.584,103.438 110.518,103.667 110.461 C 103.896 110.405,104.983 110.268,106.083 110.157 C 107.183 110.045,108.121 109.907,108.167 109.850 C 108.212 109.792,108.624 109.647,109.081 109.529 C 109.538 109.410,110.026 109.218,110.165 109.101 C 110.303 108.984,110.679 108.786,111.000 108.662 C 111.321 108.537,111.621 108.388,111.667 108.331 C 111.712 108.273,112.331 107.907,113.042 107.518 C 113.752 107.129,114.333 106.745,114.333 106.666 C 114.333 106.587,114.483 106.475,114.667 106.417 C 114.850 106.359,115.581 105.716,116.292 104.989 C 117.954 103.288,118.142 103.071,118.367 102.577 C 118.469 102.351,118.616 102.167,118.693 102.167 C 118.770 102.167,118.833 102.064,118.833 101.939 C 118.833 101.814,118.974 101.533,119.145 101.314 C 119.317 101.096,119.598 100.504,119.770 100.000 C 119.943 99.496,120.129 99.046,120.184 99.000 C 120.239 98.954,120.377 98.392,120.489 97.750 C 120.601 97.108,120.736 96.471,120.788 96.333 C 120.841 96.196,120.925 95.971,120.976 95.833 C 121.027 95.696,121.073 92.133,121.077 87.917 C 121.085 80.348,121.254 77.500,121.696 77.500 C 121.782 77.500,121.814 77.436,121.766 77.359 C 121.683 77.225,122.787 74.915,123.149 74.463 C 123.747 73.717,124.751 72.667,124.865 72.667 C 124.939 72.667,125.139 72.535,125.308 72.375 C 125.762 71.946,126.251 71.561,126.778 71.219 C 127.035 71.053,127.372 70.804,127.527 70.667 C 127.996 70.251,128.230 70.098,128.921 69.752 C 129.285 69.569,129.621 69.382,129.667 69.335 C 129.832 69.166,131.599 68.365,132.250 68.163 C 132.617 68.049,132.997 67.893,133.095 67.816 C 133.193 67.739,133.680 67.589,134.178 67.484 C 134.676 67.378,135.128 67.221,135.183 67.135 C 135.238 67.049,135.932 66.970,136.725 66.959 L 138.167 66.939 138.167 66.242 C 138.167 65.295,137.864 63.763,137.663 63.694 C 137.574 63.664,137.500 63.530,137.500 63.397 C 137.500 62.318,135.366 60.830,133.304 60.471 C 132.724 60.370,132.212 60.235,132.167 60.170 C 132.121 60.106,131.427 59.917,130.625 59.751 C 129.823 59.584,129.167 59.392,129.167 59.323 C 129.167 59.254,128.792 59.101,128.333 58.984 C 127.875 58.866,127.500 58.715,127.500 58.648 C 127.500 58.581,127.225 58.435,126.890 58.325 C 125.306 57.802,124.264 57.130,123.295 56.007 C 122.877 55.523,122.000 53.930,121.999 53.653 C 121.998 53.523,121.895 53.220,121.770 52.979 C 121.184 51.856,121.091 50.405,121.087 42.333 C 121.084 36.607,121.030 34.324,120.889 34.083 C 120.782 33.900,120.601 33.206,120.487 32.542 C 120.373 31.877,120.226 31.333,120.161 31.333 C 120.095 31.333,119.993 31.090,119.935 30.792 C 119.816 30.189,118.855 28.167,118.688 28.167 C 118.629 28.167,118.483 27.945,118.363 27.673 C 118.124 27.133,115.132 24.000,114.855 24.000 C 114.760 24.000,114.623 23.898,114.550 23.774 C 114.417 23.549,113.441 22.934,112.333 22.377 C 112.013 22.215,111.712 22.040,111.667 21.986 C 111.532 21.829,109.398 20.856,108.930 20.738 C 108.694 20.679,108.500 20.573,108.500 20.502 C 108.500 20.431,107.619 20.285,106.542 20.178 C 105.465 20.071,104.449 19.909,104.284 19.819 C 104.119 19.728,103.707 19.659,103.367 19.666 C 102.497 19.683,95.303 19.072,95.000 18.956 C 94.862 18.903,93.850 18.818,92.750 18.766 C 87.849 18.535,83.910 18.267,83.833 18.159 C 83.621 17.860,79.167 17.789,79.167 18.084 M46.500 47.917 L 46.500 51.333 72.917 51.333 L 99.333 51.333 99.333 47.917 L 99.333 44.500 72.917 44.500 L 46.500 44.500 46.500 47.917 M46.500 65.167 L 46.500 68.500 72.917 68.500 L 99.333 68.500 99.333 65.167 L 99.333 61.833 72.917 61.833 L 46.500 61.833 46.500 65.167 M46.500 82.417 L 46.500 85.833 72.917 85.833 L 99.333 85.833 99.333 82.417 L 99.333 79.000 72.917 79.000 L 46.500 79.000 46.500 82.417 " stroke="none" fill="#e40474" fill-rule="evenodd"></path><path id="path1" d="M315.750 17.940 C 315.383 17.978,314.933 18.075,314.750 18.156 C 314.567 18.236,313.633 18.425,312.676 18.575 C 311.718 18.724,310.856 18.906,310.759 18.977 C 310.662 19.049,310.246 19.204,309.833 19.321 C 309.421 19.438,308.781 19.671,308.411 19.838 C 308.041 20.005,307.535 20.193,307.286 20.256 C 307.037 20.318,306.833 20.430,306.833 20.505 C 306.833 20.579,306.458 20.764,306.000 20.917 C 305.542 21.069,305.167 21.247,305.167 21.313 C 305.167 21.379,304.904 21.528,304.583 21.644 C 304.262 21.760,304.000 21.917,304.000 21.992 C 304.000 22.067,303.737 22.253,303.417 22.405 C 303.096 22.558,302.833 22.754,302.833 22.841 C 302.833 22.929,302.740 23.000,302.625 23.001 C 302.072 23.003,299.027 25.801,297.580 27.636 C 297.123 28.214,296.581 28.889,296.375 29.136 C 296.169 29.382,296.000 29.677,296.000 29.792 C 296.000 29.906,295.924 30.000,295.832 30.000 C 295.740 30.000,295.544 30.300,295.397 30.667 C 295.251 31.033,295.074 31.333,295.005 31.333 C 294.935 31.333,294.743 31.690,294.576 32.125 C 294.410 32.560,294.178 33.013,294.060 33.130 C 293.943 33.248,293.798 33.604,293.738 33.922 C 293.678 34.240,293.571 34.500,293.500 34.500 C 293.429 34.500,293.235 35.006,293.070 35.625 C 292.905 36.244,292.722 36.787,292.663 36.833 C 292.568 36.907,292.349 37.823,291.827 40.333 C 291.390 42.434,291.508 51.327,291.978 51.665 C 292.043 51.712,292.187 52.295,292.298 52.960 C 292.409 53.626,292.572 54.301,292.660 54.460 C 292.748 54.620,292.953 55.219,293.114 55.792 C 293.275 56.365,293.456 56.833,293.515 56.833 C 293.575 56.833,293.718 57.171,293.833 57.583 C 293.949 57.996,294.094 58.333,294.155 58.333 C 294.217 58.333,294.402 58.708,294.567 59.167 C 294.732 59.625,294.926 60.000,294.999 60.000 C 295.071 60.000,295.251 60.300,295.397 60.667 C 295.544 61.033,295.740 61.333,295.832 61.333 C 295.924 61.333,296.000 61.432,296.000 61.552 C 296.000 61.672,296.132 61.916,296.293 62.094 C 296.454 62.271,296.728 62.642,296.903 62.917 C 297.077 63.192,297.320 63.477,297.443 63.550 C 297.566 63.623,297.667 63.757,297.667 63.847 C 297.667 64.265,302.331 68.499,302.792 68.500 C 302.906 68.500,303.000 68.577,303.000 68.672 C 303.000 68.766,303.131 68.894,303.292 68.955 C 303.452 69.017,303.814 69.223,304.095 69.414 C 304.572 69.738,306.770 70.842,308.500 71.628 C 308.912 71.815,309.681 72.063,310.208 72.177 C 310.735 72.292,311.167 72.439,311.167 72.503 C 311.167 72.567,311.748 72.716,312.458 72.834 C 313.169 72.952,313.825 73.107,313.918 73.178 C 314.678 73.762,324.804 73.768,326.083 73.185 C 326.267 73.101,326.960 72.944,327.625 72.835 C 328.290 72.726,328.833 72.581,328.833 72.513 C 328.833 72.446,329.211 72.303,329.672 72.197 C 330.133 72.090,330.865 71.846,331.297 71.654 C 333.669 70.599,334.333 70.272,334.333 70.160 C 334.333 70.092,334.508 69.992,334.722 69.939 C 335.047 69.857,335.712 69.415,336.585 68.699 C 336.678 68.623,336.879 68.491,337.031 68.405 C 337.765 67.994,340.833 65.084,340.833 64.800 C 340.833 64.663,340.385 64.210,339.237 63.185 C 338.220 62.278,335.230 59.452,333.302 57.576 C 331.727 56.043,331.638 55.996,331.271 56.521 C 330.902 57.047,329.177 58.833,329.038 58.834 C 328.971 58.834,328.699 59.021,328.432 59.250 C 328.166 59.479,327.883 59.667,327.804 59.667 C 327.724 59.667,327.380 59.848,327.038 60.070 C 326.696 60.292,326.079 60.570,325.667 60.687 C 325.254 60.804,324.879 60.954,324.832 61.019 C 324.411 61.613,317.221 61.604,316.417 61.008 C 316.325 60.941,315.875 60.785,315.417 60.663 C 314.618 60.451,312.841 59.595,312.667 59.339 C 312.621 59.272,312.409 59.125,312.195 59.012 C 311.002 58.383,308.167 55.328,308.167 54.671 C 308.167 54.577,308.099 54.500,308.017 54.500 C 307.934 54.500,307.732 54.125,307.567 53.667 C 307.402 53.208,307.216 52.833,307.154 52.833 C 307.091 52.833,306.950 52.478,306.841 52.044 C 306.731 51.610,306.578 51.215,306.500 51.167 C 305.726 50.688,305.703 40.853,306.475 40.343 C 306.552 40.292,306.670 40.026,306.737 39.753 C 306.804 39.479,307.041 38.858,307.263 38.373 C 307.485 37.887,307.667 37.456,307.667 37.413 C 307.667 37.330,308.671 35.873,309.333 34.996 C 309.563 34.692,310.050 34.161,310.417 33.814 C 310.783 33.468,311.241 33.031,311.434 32.843 C 311.627 32.654,311.845 32.500,311.918 32.500 C 311.992 32.500,312.284 32.323,312.568 32.107 C 312.851 31.891,313.252 31.661,313.458 31.596 C 313.665 31.531,313.833 31.422,313.833 31.355 C 313.833 31.288,314.227 31.094,314.708 30.925 C 315.190 30.756,315.661 30.557,315.757 30.484 C 316.888 29.614,324.400 29.626,325.583 30.500 C 325.675 30.568,326.050 30.718,326.417 30.834 C 327.030 31.028,328.260 31.667,328.814 32.079 C 328.940 32.173,329.561 32.756,330.192 33.375 C 330.823 33.994,331.395 34.500,331.463 34.500 C 331.692 34.500,340.167 25.916,340.167 25.683 C 340.167 25.311,337.646 22.956,336.651 22.398 C 336.342 22.225,335.988 21.989,335.865 21.874 C 335.741 21.758,335.140 21.425,334.528 21.133 C 333.917 20.841,333.379 20.553,333.333 20.492 C 333.287 20.431,332.961 20.288,332.609 20.173 C 332.256 20.058,331.769 19.859,331.526 19.732 C 331.282 19.604,330.652 19.410,330.125 19.300 C 329.598 19.190,329.167 19.053,329.167 18.995 C 329.167 18.937,328.435 18.757,327.542 18.594 C 326.648 18.432,325.767 18.216,325.583 18.115 C 325.254 17.934,317.190 17.790,315.750 17.940 M151.500 45.653 L 151.500 72.167 158.083 72.167 L 164.667 72.167 164.667 62.250 L 164.667 52.333 169.125 52.330 C 173.458 52.328,176.403 52.152,177.083 51.857 C 177.267 51.778,178.091 51.584,178.914 51.427 C 179.738 51.271,180.488 51.085,180.581 51.014 C 180.674 50.943,181.106 50.789,181.542 50.671 C 181.977 50.553,182.333 50.405,182.333 50.342 C 182.333 50.279,182.738 50.100,183.232 49.944 C 183.726 49.788,184.223 49.550,184.336 49.414 C 184.449 49.278,184.639 49.167,184.759 49.167 C 184.878 49.167,185.075 49.072,185.196 48.956 C 185.318 48.840,185.628 48.610,185.886 48.445 C 187.134 47.646,189.156 45.546,189.164 45.042 C 189.165 44.927,189.243 44.833,189.336 44.833 C 189.429 44.833,189.631 44.571,189.784 44.250 C 189.937 43.929,190.123 43.667,190.198 43.667 C 190.272 43.667,190.333 43.594,190.333 43.505 C 190.333 43.416,190.516 42.943,190.740 42.455 C 190.963 41.966,191.240 41.045,191.355 40.408 C 191.470 39.771,191.642 39.197,191.737 39.133 C 191.988 38.963,191.975 32.504,191.722 31.984 C 191.615 31.764,191.441 31.103,191.334 30.516 C 191.227 29.929,190.996 29.180,190.820 28.852 C 190.644 28.524,190.500 28.165,190.500 28.056 C 190.500 27.947,190.403 27.758,190.285 27.637 C 190.167 27.516,189.939 27.135,189.778 26.792 C 189.616 26.448,189.413 26.167,189.326 26.167 C 189.238 26.167,189.167 26.076,189.167 25.964 C 189.167 25.734,188.959 25.496,187.483 24.042 C 186.901 23.469,186.330 23.000,186.213 23.000 C 186.096 23.000,186.000 22.934,186.000 22.853 C 186.000 22.692,183.677 21.500,183.363 21.500 C 183.255 21.500,183.167 21.429,183.167 21.342 C 183.167 21.255,182.735 21.051,182.208 20.888 C 181.681 20.725,181.213 20.545,181.167 20.487 C 181.121 20.429,180.558 20.291,179.917 20.179 C 179.275 20.067,178.600 19.907,178.417 19.824 C 177.468 19.393,174.893 19.288,163.458 19.215 L 151.500 19.138 151.500 45.653 M199.333 45.667 L 199.333 72.167 217.833 72.167 L 236.333 72.167 236.333 66.667 L 236.333 61.167 224.083 61.167 L 211.833 61.167 211.833 55.833 L 211.833 50.500 222.833 50.500 L 233.833 50.500 233.833 45.167 L 233.833 39.833 222.833 39.833 L 211.833 39.833 211.833 35.000 L 211.833 30.167 223.500 30.167 L 235.167 30.167 235.167 24.667 L 235.167 19.167 217.250 19.167 L 199.333 19.167 199.333 45.667 M244.500 45.655 L 244.500 72.167 250.917 72.167 L 257.333 72.167 257.333 61.750 L 257.333 51.333 259.262 51.333 C 261.380 51.333,261.407 51.345,261.906 52.417 C 262.076 52.783,262.261 53.121,262.316 53.167 C 262.372 53.212,262.717 53.850,263.083 54.583 C 263.450 55.317,263.795 55.954,263.850 56.000 C 263.906 56.046,264.089 56.383,264.258 56.750 C 264.428 57.117,264.618 57.454,264.681 57.500 C 264.744 57.546,264.916 57.846,265.063 58.167 C 265.210 58.487,265.668 59.350,266.082 60.083 C 266.495 60.817,266.994 61.754,267.190 62.167 C 267.387 62.579,267.602 62.954,267.668 63.000 C 267.734 63.046,267.841 63.252,267.905 63.457 C 267.969 63.663,268.111 63.926,268.220 64.041 C 268.328 64.156,268.713 64.831,269.075 65.542 C 269.436 66.252,269.777 66.833,269.832 66.833 C 269.888 66.833,270.034 67.115,270.157 67.458 C 270.280 67.802,270.516 68.257,270.681 68.469 C 270.846 68.681,271.066 69.112,271.170 69.427 C 271.274 69.742,271.414 70.000,271.482 70.000 C 271.549 70.000,271.707 70.262,271.833 70.583 C 271.959 70.904,272.116 71.167,272.181 71.167 C 272.247 71.167,272.379 71.392,272.475 71.667 L 272.649 72.167 280.336 72.167 L 288.022 72.167 287.911 71.792 C 287.850 71.585,287.712 71.342,287.605 71.250 C 287.498 71.158,287.269 70.765,287.097 70.375 C 286.924 69.985,286.724 69.667,286.653 69.667 C 286.581 69.667,286.475 69.517,286.417 69.334 C 286.359 69.152,286.223 68.908,286.114 68.793 C 285.917 68.583,285.505 67.875,284.805 66.542 C 284.601 66.152,284.374 65.833,284.300 65.833 C 284.227 65.833,284.167 65.753,284.167 65.655 C 284.167 65.557,283.960 65.162,283.708 64.777 C 283.089 63.832,282.886 63.503,282.564 62.925 C 282.413 62.654,282.187 62.330,282.062 62.205 C 281.936 62.079,281.833 61.901,281.833 61.810 C 281.833 61.718,281.608 61.316,281.333 60.917 C 281.058 60.517,280.833 60.110,280.833 60.012 C 280.833 59.914,280.770 59.833,280.692 59.833 C 280.614 59.833,280.415 59.533,280.250 59.167 C 280.085 58.800,279.887 58.500,279.811 58.500 C 279.735 58.500,279.626 58.312,279.568 58.081 C 279.510 57.851,279.377 57.607,279.273 57.540 C 279.169 57.472,278.934 57.117,278.752 56.750 C 278.569 56.383,278.373 56.046,278.316 56.000 C 278.258 55.954,278.033 55.588,277.814 55.186 C 277.396 54.417,277.348 54.338,276.622 53.212 C 276.371 52.824,276.167 52.430,276.167 52.337 C 276.167 52.243,276.097 52.167,276.011 52.167 C 275.926 52.167,275.808 52.017,275.750 51.834 C 275.692 51.652,275.556 51.408,275.447 51.293 C 274.381 50.162,274.461 49.508,275.708 49.171 C 276.144 49.053,276.500 48.906,276.500 48.845 C 276.500 48.784,276.771 48.636,277.103 48.516 C 278.580 47.982,282.290 44.923,282.584 43.998 C 282.642 43.816,282.747 43.667,282.818 43.667 C 282.888 43.667,283.090 43.368,283.265 43.002 C 283.440 42.636,283.628 42.336,283.682 42.335 C 283.736 42.334,283.880 42.015,284.003 41.625 C 284.126 41.235,284.290 40.831,284.368 40.727 C 284.579 40.444,284.994 38.351,284.997 37.552 C 284.999 37.167,285.075 36.807,285.167 36.750 C 285.258 36.693,285.333 36.018,285.333 35.250 C 285.333 34.482,285.258 33.807,285.167 33.750 C 285.075 33.693,285.000 33.284,285.000 32.841 C 285.000 31.978,284.534 29.471,284.348 29.333 C 284.287 29.287,284.133 28.931,284.008 28.542 C 283.883 28.152,283.726 27.833,283.660 27.833 C 283.594 27.833,283.448 27.611,283.336 27.340 C 282.965 26.444,280.292 23.333,279.894 23.333 C 279.826 23.333,279.617 23.190,279.427 23.016 C 278.670 22.317,275.916 20.917,274.958 20.743 C 274.615 20.681,274.333 20.571,274.333 20.500 C 274.333 20.429,273.827 20.278,273.208 20.164 C 272.590 20.049,272.008 19.899,271.917 19.829 C 271.375 19.417,267.882 19.277,256.458 19.212 L 244.500 19.143 244.500 45.655 M338.000 19.394 C 338.000 19.519,338.150 19.812,338.333 20.045 C 338.517 20.279,338.667 20.514,338.667 20.569 C 338.667 20.624,338.873 20.960,339.125 21.315 C 339.752 22.198,339.915 22.443,340.578 23.500 C 340.894 24.004,341.223 24.499,341.308 24.599 C 341.394 24.699,341.587 25.018,341.737 25.307 C 341.886 25.597,342.064 25.833,342.132 25.833 C 342.199 25.833,342.385 26.133,342.544 26.500 C 342.702 26.867,342.908 27.167,343.000 27.167 C 343.091 27.167,343.167 27.243,343.167 27.337 C 343.167 27.487,344.074 28.934,344.477 29.427 C 344.556 29.525,344.717 29.782,344.833 30.000 C 344.950 30.218,345.113 30.475,345.196 30.573 C 345.280 30.670,345.605 31.157,345.919 31.654 C 346.234 32.151,346.553 32.601,346.629 32.654 C 346.705 32.707,346.898 33.031,347.058 33.375 C 347.218 33.719,347.420 34.000,347.508 34.000 C 347.595 34.000,347.667 34.080,347.667 34.178 C 347.667 34.276,347.892 34.684,348.167 35.083 C 348.442 35.483,348.667 35.887,348.667 35.980 C 348.667 36.074,348.761 36.210,348.877 36.283 C 348.992 36.357,349.234 36.698,349.415 37.042 C 349.595 37.385,349.795 37.667,349.860 37.667 C 349.925 37.667,350.025 37.816,350.083 37.999 C 350.141 38.182,350.281 38.426,350.394 38.541 C 350.507 38.656,350.895 39.237,351.257 39.833 C 351.618 40.429,351.952 40.954,351.998 41.000 C 352.228 41.225,353.167 42.696,353.167 42.830 C 353.167 42.914,353.260 43.043,353.375 43.117 C 353.490 43.190,353.728 43.512,353.904 43.833 C 354.081 44.154,354.269 44.454,354.322 44.500 C 354.376 44.546,354.716 45.071,355.078 45.667 C 355.439 46.262,355.795 46.825,355.868 46.917 C 356.199 47.332,357.167 48.837,357.167 48.936 C 357.167 48.997,357.298 49.143,357.458 49.260 C 357.730 49.459,357.753 50.236,357.795 60.820 L 357.840 72.167 364.337 72.167 L 370.833 72.167 370.833 61.026 L 370.833 49.885 371.250 49.401 C 371.479 49.135,371.666 48.823,371.666 48.708 C 371.667 48.594,371.725 48.500,371.795 48.500 C 371.866 48.500,372.072 48.219,372.252 47.875 C 372.433 47.531,372.630 47.212,372.691 47.167 C 372.889 47.017,374.667 44.331,374.667 44.182 C 374.667 44.101,374.779 43.992,374.917 43.940 C 375.054 43.887,375.167 43.743,375.167 43.620 C 375.167 43.497,375.309 43.244,375.482 43.057 C 375.656 42.871,375.929 42.463,376.089 42.151 C 376.249 41.839,376.426 41.546,376.482 41.500 C 376.671 41.345,377.667 39.863,377.667 39.737 C 377.667 39.668,377.780 39.493,377.919 39.347 C 378.308 38.940,379.333 37.362,379.333 37.171 C 379.333 37.077,379.411 37.000,379.505 37.000 C 379.600 37.000,379.731 36.869,379.797 36.708 C 379.939 36.363,380.831 35.006,381.114 34.707 C 381.223 34.592,381.359 34.348,381.417 34.166 C 381.475 33.983,381.580 33.833,381.651 33.833 C 381.722 33.833,381.923 33.534,382.098 33.169 C 382.273 32.803,382.469 32.503,382.534 32.502 C 382.598 32.501,382.783 32.221,382.945 31.881 C 383.107 31.540,383.354 31.140,383.494 30.991 C 383.635 30.843,383.842 30.578,383.954 30.402 C 384.066 30.227,384.422 29.691,384.745 29.212 C 385.069 28.733,385.333 28.265,385.333 28.171 C 385.333 28.077,385.405 28.000,385.492 28.000 C 385.580 28.000,385.776 27.738,385.928 27.417 C 386.080 27.096,386.266 26.833,386.341 26.833 C 386.416 26.833,386.522 26.693,386.577 26.520 C 386.631 26.348,386.861 25.992,387.088 25.729 C 387.314 25.465,387.500 25.165,387.500 25.062 C 387.500 24.959,387.606 24.787,387.735 24.679 C 387.864 24.572,388.092 24.226,388.242 23.909 C 388.393 23.592,388.578 23.333,388.654 23.333 C 388.731 23.333,388.886 23.108,389.000 22.833 C 389.114 22.558,389.256 22.333,389.316 22.333 C 389.375 22.333,389.572 22.052,389.752 21.708 C 389.932 21.365,390.175 21.023,390.290 20.950 C 390.406 20.877,390.500 20.739,390.500 20.643 C 390.500 20.547,390.650 20.279,390.833 20.045 C 391.548 19.137,391.793 19.167,383.586 19.167 L 376.005 19.167 375.622 19.792 C 375.002 20.805,374.857 21.049,374.460 21.736 C 374.253 22.095,373.883 22.733,373.638 23.153 C 373.393 23.573,373.066 24.198,372.911 24.542 C 372.757 24.885,372.569 25.167,372.495 25.167 C 372.420 25.167,372.273 25.429,372.167 25.750 C 372.061 26.071,371.913 26.333,371.839 26.333 C 371.764 26.333,371.575 26.652,371.420 27.041 C 371.264 27.430,371.083 27.787,371.019 27.833 C 370.913 27.908,370.665 28.313,369.636 30.083 C 369.476 30.358,369.252 30.790,369.136 31.042 C 369.021 31.294,368.880 31.500,368.822 31.500 C 368.764 31.500,368.577 31.819,368.405 32.208 C 368.233 32.598,368.047 32.954,367.990 33.000 C 367.934 33.046,367.599 33.608,367.245 34.250 C 366.892 34.892,366.559 35.454,366.505 35.500 C 366.451 35.546,366.267 35.902,366.095 36.292 C 365.923 36.681,365.733 37.000,365.672 37.000 C 365.612 37.000,365.460 37.259,365.336 37.576 C 365.103 38.169,364.667 38.504,364.667 38.090 C 364.667 37.962,364.551 37.742,364.411 37.601 C 364.270 37.460,364.038 37.099,363.896 36.798 C 363.628 36.231,363.162 35.396,362.176 33.724 C 361.860 33.188,361.482 32.525,361.335 32.250 C 360.895 31.427,360.595 30.942,360.385 30.713 C 360.276 30.594,360.092 30.235,359.977 29.915 C 359.861 29.595,359.716 29.333,359.653 29.333 C 359.591 29.333,359.447 29.108,359.333 28.833 C 359.219 28.558,359.075 28.333,359.013 28.333 C 358.951 28.333,358.806 28.072,358.690 27.752 C 358.574 27.432,358.389 27.076,358.279 26.960 C 358.168 26.845,357.936 26.431,357.763 26.042 C 357.591 25.652,357.400 25.333,357.339 25.333 C 357.278 25.333,357.126 25.071,357.000 24.750 C 356.874 24.429,356.715 24.167,356.647 24.167 C 356.578 24.167,356.473 24.010,356.412 23.819 C 356.308 23.491,355.353 21.846,355.163 21.667 C 355.114 21.621,354.934 21.265,354.762 20.875 C 354.590 20.485,354.402 20.167,354.345 20.167 C 354.287 20.167,354.155 19.942,354.051 19.667 L 353.862 19.167 345.931 19.167 C 339.341 19.167,338.000 19.205,338.000 19.394 M174.125 30.179 C 174.698 30.296,175.167 30.442,175.167 30.503 C 175.167 30.564,175.458 30.709,175.814 30.827 C 176.777 31.145,177.967 32.334,178.318 33.332 C 178.480 33.791,178.662 34.217,178.723 34.278 C 178.890 34.446,178.855 37.000,178.685 37.000 C 178.604 37.000,178.486 37.272,178.424 37.604 C 178.197 38.815,176.809 40.264,175.333 40.832 C 175.012 40.955,174.663 41.122,174.556 41.203 C 174.449 41.284,173.718 41.438,172.931 41.545 C 172.144 41.653,171.500 41.799,171.500 41.870 C 171.500 41.942,169.962 42.000,168.083 42.000 L 164.667 42.000 164.667 35.897 L 164.667 29.793 168.875 29.879 C 171.279 29.928,173.530 30.057,174.125 30.179 M267.500 30.176 C 268.004 30.299,268.454 30.449,268.500 30.509 C 268.546 30.569,268.883 30.714,269.250 30.830 C 270.329 31.172,271.643 32.635,271.878 33.757 C 271.983 34.257,272.128 34.667,272.201 34.667 C 272.395 34.667,272.363 36.295,272.167 36.417 C 272.075 36.473,272.000 36.699,272.000 36.919 C 272.000 37.290,271.738 38.031,271.470 38.417 C 271.033 39.046,269.918 40.167,269.729 40.167 C 269.603 40.167,269.500 40.231,269.500 40.311 C 269.500 40.390,269.069 40.587,268.542 40.750 C 268.015 40.913,267.506 41.106,267.411 41.180 C 267.050 41.461,264.290 41.667,260.879 41.667 L 257.333 41.667 257.333 35.731 L 257.333 29.796 261.958 29.874 C 265.004 29.926,266.896 30.029,267.500 30.176 M196.333 86.815 C 196.333 86.896,196.089 87.009,195.791 87.065 C 194.846 87.242,194.000 88.483,194.000 89.692 C 194.000 89.953,193.925 90.167,193.833 90.167 C 193.735 90.167,193.667 90.778,193.667 91.667 L 193.667 93.167 192.583 93.167 L 191.500 93.167 191.500 94.417 L 191.500 95.667 192.583 95.667 L 193.667 95.667 193.667 99.833 L 193.667 104.000 195.250 104.000 L 196.833 104.000 196.833 99.833 L 196.833 95.667 198.083 95.667 L 199.333 95.667 199.333 94.417 L 199.333 93.167 198.083 93.167 L 196.833 93.167 196.833 91.743 C 196.833 89.830,197.172 89.402,198.652 89.445 L 199.632 89.473 199.705 88.195 C 199.745 87.492,199.748 86.860,199.712 86.792 C 199.619 86.614,196.333 86.636,196.333 86.815 M368.295 90.514 L 368.250 94.028 367.849 93.681 C 367.629 93.490,367.367 93.333,367.266 93.332 C 367.166 93.332,366.858 93.207,366.583 93.055 C 366.021 92.744,363.652 92.673,363.292 92.956 C 363.177 93.047,362.890 93.167,362.653 93.223 C 362.086 93.358,360.977 94.246,360.684 94.800 C 360.556 95.041,360.350 95.341,360.226 95.465 C 360.102 95.589,359.953 95.985,359.895 96.345 C 359.838 96.705,359.725 97.000,359.645 97.000 C 359.460 97.000,359.453 100.047,359.639 100.258 C 359.715 100.345,359.868 100.735,359.979 101.125 C 360.089 101.515,360.252 101.833,360.340 101.833 C 360.428 101.833,360.500 101.931,360.500 102.050 C 360.500 102.320,361.692 103.500,361.965 103.500 C 362.076 103.500,362.167 103.572,362.167 103.660 C 362.167 103.748,362.448 103.892,362.792 103.978 C 364.826 104.492,366.638 104.316,367.784 103.493 L 368.500 102.979 368.500 103.490 L 368.500 104.000 369.917 104.000 L 371.333 104.000 371.333 95.500 L 371.333 87.000 369.837 87.000 L 368.340 87.000 368.295 90.514 M158.167 87.670 C 157.938 87.751,157.281 87.906,156.708 88.015 C 156.135 88.123,155.667 88.271,155.667 88.343 C 155.667 88.415,155.413 88.558,155.103 88.660 C 154.484 88.864,152.333 90.870,152.333 91.243 C 152.333 91.371,152.233 91.577,152.110 91.699 C 150.865 92.945,150.787 99.501,152.010 100.256 C 152.091 100.306,152.272 100.588,152.413 100.882 C 153.066 102.254,154.965 103.633,156.833 104.095 C 158.651 104.544,163.167 104.236,163.167 103.663 C 163.167 103.593,163.345 103.491,163.563 103.437 C 164.097 103.303,165.500 101.897,165.500 101.497 C 165.500 101.308,165.293 101.068,165.000 100.917 C 164.725 100.774,164.500 100.585,164.500 100.496 C 164.500 100.406,164.399 100.333,164.276 100.333 C 164.153 100.333,163.916 100.183,163.750 100.000 C 163.342 99.549,163.035 99.581,162.513 100.125 C 161.956 100.706,161.253 101.167,160.923 101.167 C 160.782 101.167,160.667 101.242,160.667 101.333 C 160.667 101.541,158.603 101.556,158.206 101.350 C 158.047 101.268,157.598 101.069,157.208 100.908 C 156.819 100.748,156.500 100.551,156.500 100.471 C 156.500 100.391,156.313 100.241,156.083 100.136 C 155.854 100.032,155.667 99.858,155.667 99.749 C 155.667 99.640,155.524 99.422,155.349 99.264 C 154.454 98.454,154.235 94.997,154.981 93.456 C 155.612 92.153,157.159 90.833,158.057 90.833 C 158.198 90.833,158.360 90.758,158.417 90.667 C 158.778 90.082,161.628 90.837,162.330 91.704 C 162.664 92.116,163.345 92.019,163.793 91.495 C 163.947 91.315,164.169 91.167,164.286 91.167 C 164.402 91.167,164.591 91.017,164.705 90.833 C 164.820 90.650,165.008 90.500,165.123 90.500 C 165.239 90.500,165.333 90.455,165.333 90.400 C 165.333 90.211,163.750 88.672,163.554 88.669 C 163.446 88.668,163.241 88.551,163.099 88.409 C 162.551 87.860,159.092 87.342,158.167 87.670 M338.288 87.601 C 338.233 87.656,337.644 87.805,336.980 87.931 C 336.316 88.058,335.730 88.227,335.678 88.307 C 335.626 88.387,335.295 88.556,334.943 88.682 C 334.591 88.808,334.233 89.044,334.146 89.206 C 334.059 89.367,333.896 89.500,333.784 89.500 C 333.672 89.500,333.393 89.736,333.165 90.024 C 332.937 90.312,332.612 90.694,332.443 90.873 C 332.274 91.051,332.023 91.528,331.886 91.932 C 331.748 92.336,331.578 92.667,331.507 92.667 C 331.078 92.667,330.825 97.077,331.177 98.417 C 331.703 100.412,333.472 102.777,334.859 103.339 C 335.166 103.463,335.461 103.629,335.515 103.708 C 336.063 104.503,343.167 104.457,343.167 103.658 C 343.167 103.583,343.325 103.472,343.518 103.411 C 343.987 103.262,345.500 101.792,345.500 101.485 C 345.500 101.352,345.238 101.101,344.917 100.928 C 344.596 100.756,344.333 100.560,344.333 100.494 C 344.333 100.428,344.108 100.281,343.833 100.167 C 343.558 100.053,343.333 99.894,343.333 99.813 C 343.333 99.501,342.814 99.690,342.357 100.168 C 341.285 101.290,339.074 101.894,338.039 101.347 C 337.880 101.263,337.492 101.098,337.177 100.981 C 336.414 100.696,335.415 99.672,334.770 98.515 C 334.301 97.672,334.255 94.054,334.708 93.601 C 334.869 93.441,335.000 93.227,335.000 93.127 C 335.000 92.943,335.162 92.739,335.867 92.034 C 336.571 91.330,336.746 91.212,337.417 90.988 C 337.783 90.865,338.155 90.706,338.242 90.633 C 338.462 90.448,340.293 90.466,340.409 90.654 C 340.461 90.738,340.711 90.853,340.965 90.909 C 341.219 90.965,341.687 91.233,342.005 91.505 C 342.728 92.123,342.939 92.122,343.667 91.500 C 343.988 91.225,344.301 91.001,344.363 91.000 C 344.562 91.000,345.000 90.484,345.000 90.250 C 345.000 89.941,344.028 88.967,343.417 88.664 C 343.142 88.528,342.823 88.328,342.708 88.220 C 342.594 88.112,342.087 87.972,341.581 87.909 C 341.076 87.846,340.621 87.728,340.571 87.647 C 340.470 87.483,338.447 87.442,338.288 87.601 M201.417 87.966 C 200.105 88.426,199.853 90.270,200.995 91.051 C 201.684 91.522,202.904 91.428,203.502 90.857 C 204.918 89.503,203.327 87.297,201.417 87.966 M261.848 88.015 C 260.878 88.403,260.630 90.173,261.441 90.925 C 262.641 92.037,264.504 91.249,264.495 89.633 C 264.486 88.133,263.326 87.424,261.848 88.015 M304.480 88.667 C 304.370 89.033,304.223 89.333,304.152 89.333 C 304.081 89.333,303.904 89.746,303.757 90.250 C 303.611 90.754,303.424 91.167,303.342 91.167 C 303.260 91.167,303.142 91.410,303.079 91.708 C 303.016 92.006,302.835 92.475,302.677 92.750 C 302.518 93.025,302.289 93.569,302.168 93.958 C 302.046 94.348,301.892 94.667,301.825 94.667 C 301.758 94.667,301.652 94.870,301.589 95.120 C 301.483 95.542,301.097 96.449,300.322 98.102 C 300.145 98.478,300.000 98.832,300.000 98.888 C 300.000 98.986,299.573 99.957,298.741 101.750 C 298.529 102.208,298.304 102.790,298.242 103.043 C 298.180 103.296,298.063 103.544,297.982 103.595 C 297.523 103.878,298.019 104.000,299.625 103.998 L 301.417 103.996 301.862 102.952 C 302.108 102.378,302.364 101.686,302.432 101.414 C 302.657 100.517,302.726 100.500,306.113 100.500 L 309.250 100.500 309.625 101.347 C 309.831 101.812,310.000 102.299,310.000 102.430 C 310.000 102.560,310.063 102.667,310.140 102.667 C 310.217 102.667,310.370 102.967,310.480 103.333 L 310.680 104.000 312.525 104.000 L 314.369 104.000 314.255 103.543 C 314.192 103.292,314.079 103.048,314.005 103.002 C 313.931 102.955,313.775 102.598,313.659 102.208 C 313.542 101.819,313.396 101.500,313.333 101.500 C 313.271 101.500,313.126 101.181,313.012 100.792 C 312.898 100.402,312.710 99.933,312.594 99.750 C 312.479 99.567,312.287 99.117,312.168 98.750 C 312.049 98.383,311.899 98.046,311.834 98.000 C 311.769 97.954,311.586 97.523,311.428 97.042 C 311.269 96.560,311.079 96.167,311.005 96.167 C 310.931 96.167,310.822 95.907,310.762 95.589 C 310.702 95.271,310.557 94.914,310.438 94.795 C 310.320 94.677,310.171 94.372,310.107 94.117 C 310.043 93.863,309.768 93.168,309.495 92.573 C 309.223 91.978,309.000 91.415,309.000 91.321 C 309.000 91.226,308.850 90.853,308.667 90.491 C 308.483 90.129,308.183 89.537,308.000 89.175 C 307.817 88.813,307.667 88.401,307.667 88.259 C 307.667 88.044,307.412 88.000,306.173 88.000 L 304.680 88.000 304.480 88.667 M253.667 91.583 L 253.667 93.167 252.500 93.167 L 251.333 93.167 251.333 94.417 L 251.333 95.667 252.491 95.667 L 253.648 95.667 253.699 99.125 C 253.756 102.979,253.852 103.321,255.055 103.947 C 255.638 104.250,257.949 104.349,259.042 104.117 L 259.667 103.985 259.667 102.741 L 259.667 101.498 258.529 101.603 C 256.784 101.766,256.667 101.554,256.667 98.228 L 256.667 95.667 258.167 95.667 L 259.667 95.667 259.667 94.417 L 259.667 93.167 258.167 93.167 L 256.667 93.167 256.667 91.583 L 256.667 90.000 255.167 90.000 L 253.667 90.000 253.667 91.583 M306.325 92.833 C 306.384 92.879,306.531 93.254,306.650 93.667 C 306.770 94.079,306.999 94.717,307.161 95.083 C 307.322 95.450,307.555 96.106,307.680 96.542 C 307.804 96.977,307.965 97.333,308.036 97.333 C 308.108 97.333,308.167 97.408,308.167 97.500 C 308.167 97.602,307.361 97.667,306.083 97.667 C 304.076 97.667,303.498 97.497,304.145 97.097 C 304.225 97.047,304.430 96.518,304.601 95.920 C 304.772 95.322,304.964 94.833,305.026 94.833 C 305.089 94.833,305.194 94.590,305.259 94.292 C 305.427 93.530,306.062 92.268,306.147 92.531 C 306.185 92.652,306.265 92.787,306.325 92.833 M171.250 92.779 C 170.975 92.815,170.600 92.911,170.417 92.992 C 170.233 93.073,169.858 93.210,169.583 93.296 C 168.428 93.660,166.950 95.049,166.721 95.986 C 166.663 96.223,166.537 96.468,166.441 96.531 C 166.083 96.764,166.098 99.700,166.462 100.510 C 166.644 100.917,166.843 101.411,166.902 101.608 C 167.040 102.060,168.567 103.500,168.910 103.500 C 169.051 103.500,169.167 103.568,169.167 103.650 C 169.167 103.905,170.853 104.233,172.167 104.233 C 173.454 104.233,175.167 103.907,175.167 103.661 C 175.167 103.585,175.335 103.469,175.542 103.404 C 176.254 103.178,177.452 101.728,177.668 100.829 C 177.777 100.373,177.934 99.957,178.017 99.906 C 178.214 99.784,178.212 97.167,178.015 97.167 C 177.931 97.167,177.811 96.859,177.747 96.482 C 177.683 96.106,177.508 95.672,177.357 95.519 C 177.207 95.365,176.981 95.043,176.855 94.802 C 176.730 94.561,176.373 94.228,176.063 94.061 C 175.754 93.894,175.500 93.703,175.500 93.635 C 175.500 93.568,175.181 93.422,174.792 93.311 C 174.402 93.199,174.008 93.056,173.917 92.993 C 173.697 92.840,171.887 92.695,171.250 92.779 M185.333 92.817 C 184.590 92.972,184.036 93.263,183.458 93.802 L 183.000 94.229 183.000 93.698 L 183.000 93.167 181.500 93.167 L 180.000 93.167 180.000 98.583 L 180.000 104.000 181.583 104.000 L 183.167 104.000 183.167 100.583 C 183.167 98.417,183.228 97.167,183.333 97.167 C 183.425 97.167,183.500 97.050,183.500 96.907 C 183.500 96.765,183.742 96.427,184.037 96.157 C 185.007 95.271,186.833 95.625,186.833 96.698 C 186.833 96.864,186.908 97.000,187.000 97.000 C 187.106 97.000,187.167 98.278,187.167 100.500 L 187.167 104.000 188.750 104.000 L 190.333 104.000 190.333 100.083 C 190.333 97.583,190.273 96.167,190.167 96.167 C 190.075 96.167,190.000 96.035,189.999 95.875 C 189.995 94.649,188.864 93.167,187.933 93.167 C 187.802 93.167,187.669 93.100,187.639 93.019 C 187.559 92.808,186.022 92.673,185.333 92.817 M209.750 92.821 C 209.004 92.958,207.984 93.367,207.564 93.698 C 206.990 94.151,206.167 95.030,206.167 95.190 C 206.167 95.282,206.059 95.465,205.927 95.597 C 205.795 95.729,205.636 96.175,205.574 96.587 C 205.512 97.000,205.395 97.378,205.314 97.429 C 205.233 97.479,205.167 97.961,205.167 98.500 C 205.167 99.039,205.233 99.521,205.314 99.571 C 205.395 99.622,205.511 99.996,205.573 100.403 C 205.634 100.810,205.830 101.329,206.008 101.556 C 206.187 101.783,206.333 102.033,206.333 102.110 C 206.333 102.817,208.614 104.017,210.160 104.122 C 211.408 104.208,213.167 103.947,213.167 103.677 C 213.167 103.609,213.365 103.463,213.607 103.353 L 214.048 103.152 213.960 104.121 C 213.804 105.839,212.649 106.615,210.480 106.460 C 209.386 106.382,207.500 105.541,207.500 105.131 C 207.500 105.059,207.387 105.000,207.250 105.000 C 207.112 105.000,207.000 105.075,207.000 105.167 C 207.000 105.258,206.883 105.465,206.739 105.625 C 205.429 107.092,205.282 107.558,205.999 107.966 C 206.273 108.122,206.498 108.306,206.499 108.375 C 206.500 108.444,206.576 108.500,206.668 108.500 C 206.761 108.500,207.192 108.669,207.627 108.875 C 208.691 109.380,212.922 109.438,213.750 108.958 C 214.025 108.799,214.340 108.668,214.450 108.668 C 214.560 108.667,214.710 108.571,214.783 108.454 C 214.857 108.338,215.123 108.111,215.375 107.950 C 215.627 107.790,215.833 107.548,215.833 107.413 C 215.833 107.277,215.903 107.167,215.988 107.167 C 216.073 107.167,216.354 106.735,216.613 106.208 L 217.083 105.250 217.138 99.208 L 217.192 93.167 215.679 93.167 L 214.167 93.167 214.167 93.604 C 214.167 94.027,214.155 94.032,213.792 93.767 C 212.692 92.964,211.057 92.582,209.750 92.821 M237.600 92.781 C 237.096 92.864,236.085 93.439,235.610 93.914 C 235.352 94.172,235.333 94.155,235.333 93.679 L 235.333 93.167 233.833 93.167 L 232.333 93.167 232.333 98.583 L 232.333 104.000 233.818 104.000 L 235.303 104.000 235.360 100.639 C 235.402 98.139,235.470 97.260,235.625 97.208 C 235.740 97.170,235.833 97.034,235.833 96.907 C 235.833 96.779,236.040 96.543,236.292 96.383 C 236.544 96.222,236.804 96.014,236.869 95.921 C 236.937 95.824,237.567 95.763,238.328 95.781 L 239.667 95.812 239.667 94.416 C 239.667 93.648,239.603 92.980,239.526 92.933 C 239.294 92.789,238.118 92.697,237.600 92.781 M244.458 92.785 C 244.023 92.822,243.667 92.913,243.667 92.988 C 243.667 93.063,243.372 93.171,243.012 93.229 C 242.652 93.286,242.245 93.446,242.107 93.583 C 241.970 93.721,241.796 93.836,241.720 93.839 C 241.498 93.848,240.833 94.455,240.833 94.649 C 240.833 94.880,242.224 96.333,242.446 96.333 C 242.539 96.333,242.747 96.188,242.908 96.009 C 243.069 95.831,243.418 95.638,243.682 95.580 C 243.946 95.522,244.206 95.405,244.258 95.321 C 244.371 95.137,246.114 95.111,246.194 95.292 C 246.225 95.360,246.469 95.529,246.737 95.667 C 247.154 95.881,247.657 96.732,247.475 96.914 C 247.442 96.947,246.446 97.052,245.263 97.146 C 244.080 97.241,243.068 97.378,243.015 97.452 C 242.961 97.525,242.619 97.689,242.255 97.817 C 239.502 98.780,239.455 102.942,242.185 103.975 C 243.601 104.510,246.026 104.289,246.909 103.544 L 247.417 103.115 247.469 103.557 C 247.522 103.997,247.531 104.000,248.928 104.000 L 250.333 104.000 250.333 100.010 C 250.333 97.815,250.267 95.979,250.186 95.928 C 250.104 95.878,249.988 95.569,249.926 95.242 C 249.791 94.519,248.760 93.404,248.072 93.235 C 247.803 93.169,247.546 93.062,247.500 92.996 C 247.388 92.837,245.445 92.702,244.458 92.785 M271.417 92.775 C 271.142 92.814,270.767 92.907,270.583 92.983 C 270.400 93.059,269.961 93.213,269.608 93.327 C 266.913 94.195,265.477 98.411,266.917 101.228 C 267.411 102.196,268.668 103.500,269.107 103.500 C 269.231 103.500,269.333 103.572,269.333 103.660 C 269.333 103.949,270.720 104.214,272.250 104.219 C 273.727 104.223,275.167 103.957,275.167 103.678 C 275.167 103.600,275.356 103.489,275.588 103.430 C 275.950 103.340,276.782 102.602,277.444 101.784 C 278.336 100.683,278.377 95.500,277.494 95.500 C 277.405 95.500,277.333 95.403,277.333 95.285 C 277.333 95.166,277.015 94.789,276.625 94.445 C 275.623 93.563,275.630 93.567,274.905 93.320 C 274.545 93.198,274.175 93.046,274.083 92.984 C 273.858 92.831,272.038 92.688,271.417 92.775 M285.458 92.786 C 285.115 92.823,284.833 92.924,284.833 93.010 C 284.833 93.096,284.725 93.167,284.594 93.167 C 284.462 93.167,284.106 93.394,283.802 93.673 L 283.250 94.179 283.198 93.673 L 283.146 93.167 281.739 93.167 L 280.333 93.167 280.333 98.583 L 280.333 104.000 281.833 104.000 L 283.333 104.000 283.333 100.704 C 283.333 97.153,283.325 97.190,284.307 96.125 C 285.245 95.106,287.167 95.808,287.167 97.170 C 287.167 97.432,287.242 97.693,287.333 97.750 C 287.435 97.813,287.500 99.057,287.500 100.927 L 287.500 104.000 288.929 104.000 L 290.358 104.000 290.304 99.625 C 290.247 94.976,290.235 94.903,289.362 93.888 C 288.696 93.114,286.964 92.625,285.458 92.786 M318.042 92.783 C 317.652 92.821,317.333 92.914,317.333 92.989 C 317.333 93.064,317.119 93.168,316.856 93.220 C 316.249 93.342,315.000 94.531,315.000 94.987 C 315.000 95.177,314.925 95.333,314.833 95.333 C 314.044 95.333,315.012 98.496,315.914 98.864 C 316.191 98.977,316.508 99.159,316.620 99.268 C 316.732 99.377,317.276 99.519,317.828 99.583 C 318.381 99.647,318.833 99.767,318.833 99.850 C 318.833 99.932,318.950 100.000,319.092 100.000 C 319.701 100.000,320.333 100.501,320.333 100.984 C 320.333 102.016,318.182 102.154,317.087 101.192 C 316.758 100.903,316.397 100.668,316.286 100.670 C 316.029 100.674,314.333 102.268,314.333 102.506 C 314.333 102.752,315.167 103.500,315.441 103.500 C 315.565 103.500,315.667 103.572,315.667 103.660 C 315.667 103.878,316.673 104.125,318.083 104.255 C 320.049 104.435,321.695 103.972,322.650 102.970 C 323.377 102.207,323.417 102.094,323.417 100.750 C 323.417 99.804,323.343 99.319,323.167 99.105 C 322.484 98.274,321.897 97.845,321.307 97.746 C 320.955 97.686,320.667 97.582,320.667 97.514 C 320.667 97.446,320.173 97.300,319.569 97.189 C 318.129 96.923,317.438 96.362,317.910 95.840 C 318.080 95.653,318.342 95.500,318.492 95.500 C 318.643 95.500,318.842 95.425,318.934 95.333 C 319.112 95.154,320.362 95.671,320.792 96.102 C 321.228 96.538,323.000 95.283,323.000 94.539 C 323.000 94.216,322.094 93.334,321.760 93.332 C 321.663 93.332,321.384 93.227,321.141 93.101 C 320.639 92.838,319.094 92.680,318.042 92.783 M351.167 92.780 C 350.846 92.815,350.433 92.909,350.250 92.988 C 350.067 93.068,349.654 93.232,349.333 93.352 C 349.012 93.472,348.651 93.649,348.530 93.744 C 346.950 94.982,346.307 96.168,346.199 98.040 C 346.123 99.349,346.391 101.167,346.661 101.167 C 346.736 101.167,346.845 101.356,346.903 101.588 C 347.039 102.131,348.202 103.294,348.746 103.430 C 348.977 103.489,349.167 103.600,349.167 103.678 C 349.167 103.952,350.596 104.215,352.083 104.215 C 353.570 104.215,355.000 103.952,355.000 103.678 C 355.000 103.600,355.182 103.490,355.405 103.434 C 357.813 102.830,358.819 98.027,357.121 95.250 C 356.751 94.646,356.111 94.000,355.881 94.000 C 355.758 94.000,355.617 93.898,355.569 93.774 C 355.522 93.649,355.168 93.448,354.783 93.327 C 354.398 93.206,354.008 93.055,353.917 92.992 C 353.695 92.839,351.899 92.701,351.167 92.780 M378.417 92.774 C 378.142 92.813,377.767 92.910,377.583 92.989 C 377.400 93.068,376.988 93.232,376.667 93.352 C 376.000 93.602,375.993 93.607,375.042 94.445 C 374.652 94.789,374.333 95.166,374.333 95.285 C 374.333 95.403,374.261 95.500,374.173 95.500 C 373.581 95.500,373.282 99.347,373.764 100.766 C 374.037 101.571,374.081 101.639,374.918 102.571 C 376.955 104.836,381.462 104.858,383.638 102.613 L 384.189 102.045 383.386 101.357 C 382.945 100.978,382.496 100.668,382.389 100.668 C 382.282 100.667,382.164 100.576,382.127 100.465 C 382.083 100.332,381.927 100.388,381.665 100.632 C 381.448 100.834,381.215 101.000,381.147 101.000 C 381.079 101.000,380.903 101.121,380.755 101.269 C 379.844 102.180,377.381 101.719,376.842 100.537 C 376.438 99.648,376.358 99.667,380.583 99.667 L 384.500 99.667 384.500 98.611 C 384.500 97.448,384.193 95.667,383.993 95.667 C 383.923 95.667,383.788 95.442,383.692 95.167 C 383.596 94.892,383.438 94.667,383.342 94.667 C 383.246 94.667,383.167 94.554,383.167 94.417 C 383.167 94.279,383.106 94.167,383.031 94.167 C 382.957 94.167,382.733 94.014,382.533 93.828 C 381.730 93.080,379.779 92.581,378.417 92.774 M200.500 98.583 L 200.500 104.000 202.083 104.000 L 203.667 104.000 203.667 98.583 L 203.667 93.167 202.083 93.167 L 200.500 93.167 200.500 98.583 M219.834 97.292 C 219.835 101.998,219.895 102.342,220.879 103.279 C 222.192 104.531,225.447 104.644,226.301 103.467 C 226.608 103.044,226.833 103.094,226.833 103.583 C 226.833 103.997,226.844 104.000,228.333 104.000 L 229.833 104.000 229.833 98.583 L 229.833 93.167 228.350 93.167 L 226.868 93.167 226.809 96.611 C 226.765 99.176,226.697 100.073,226.542 100.125 C 226.427 100.163,226.333 100.284,226.333 100.393 C 226.333 100.503,226.101 100.797,225.816 101.046 C 224.817 101.923,223.000 101.420,223.000 100.268 C 223.000 100.040,222.925 99.807,222.833 99.750 C 222.731 99.687,222.667 98.387,222.667 96.407 L 222.667 93.167 221.250 93.167 L 219.833 93.167 219.834 97.292 M261.167 98.583 L 261.167 104.000 262.750 104.000 L 264.333 104.000 264.333 98.583 L 264.333 93.167 262.750 93.167 L 261.167 93.167 261.167 98.583 M380.323 95.577 C 381.052 96.037,381.134 96.140,381.335 96.839 L 381.477 97.333 379.072 97.333 C 376.688 97.333,376.667 97.330,376.670 96.958 C 376.684 95.549,378.932 94.699,380.323 95.577 M173.202 95.815 C 173.568 95.954,174.295 96.600,174.809 97.241 C 175.066 97.562,175.139 99.469,174.902 99.640 C 174.818 99.701,174.644 99.954,174.516 100.203 C 174.024 101.158,171.000 102.154,171.000 101.361 C 171.000 101.285,170.815 101.124,170.589 101.003 C 169.485 100.412,168.823 98.100,169.515 97.257 C 170.062 96.590,170.792 95.874,171.012 95.787 C 171.395 95.636,172.778 95.654,173.202 95.815 M213.204 96.254 C 214.758 97.571,214.293 100.690,212.482 101.087 C 212.219 101.145,211.961 101.262,211.909 101.346 C 211.561 101.909,209.304 100.921,208.803 99.987 C 208.022 98.531,208.766 96.170,210.131 95.772 C 211.026 95.511,212.622 95.761,213.204 96.254 M274.221 96.377 C 274.562 96.718,274.886 97.222,274.941 97.498 C 274.997 97.774,275.107 98.000,275.188 98.000 C 275.268 98.000,275.333 98.263,275.333 98.583 C 275.333 98.904,275.258 99.167,275.167 99.167 C 275.075 99.167,275.000 99.289,275.000 99.439 C 275.000 99.908,274.341 100.802,273.827 101.030 C 273.555 101.150,273.333 101.305,273.333 101.374 C 273.333 101.626,271.493 101.503,271.036 101.220 C 268.250 99.496,269.308 95.533,272.509 95.700 C 273.514 95.753,273.651 95.807,274.221 96.377 M353.880 96.257 C 354.792 97.020,355.107 98.028,354.826 99.286 C 354.646 100.092,353.822 101.167,353.384 101.167 C 353.264 101.167,353.167 101.242,353.167 101.333 C 353.167 101.575,351.201 101.539,350.898 101.292 C 349.217 99.919,348.781 98.568,349.543 97.096 C 350.293 95.648,352.616 95.198,353.880 96.257 M367.214 96.234 C 367.555 96.494,367.833 96.804,367.833 96.923 C 367.833 97.042,367.927 97.170,368.042 97.208 C 368.390 97.324,368.320 99.704,367.958 100.065 C 367.798 100.226,367.667 100.413,367.667 100.482 C 367.667 101.274,364.976 101.800,364.167 101.167 C 363.938 100.987,363.669 100.839,363.571 100.837 C 362.872 100.823,362.372 98.498,362.852 97.490 C 363.734 95.634,365.690 95.071,367.214 96.234 M247.333 99.915 C 247.333 100.235,247.222 100.628,247.086 100.790 C 246.951 100.951,246.734 101.230,246.605 101.410 C 246.182 101.999,244.138 101.999,243.592 101.411 C 242.573 100.311,243.851 99.420,246.542 99.353 L 247.333 99.333 247.333 99.915 " stroke="none" fill="#040404" fill-rule="evenodd"></path><path id="path2" d="" stroke="none" fill="#b00478" fill-rule="evenodd"></path><path id="path3" d="" stroke="none" fill="#40043c" fill-rule="evenodd"></path><path id="path4" d="" stroke="none" fill="#040440" fill-rule="evenodd"></path><path id="path5" d="" stroke="none" fill="#080404" fill-rule="evenodd"></path><path id="path6" d="" stroke="none" fill="#080404" fill-rule="evenodd"></path><path id="path7" d="" stroke="none" fill="#080404" fill-rule="evenodd"></path><path id="path8" d="" stroke="none" fill="#080404" fill-rule="evenodd"></path></g></svg>